<?xml version="1.0" standalone="no"?>
<!DOCTYPE svg PUBLIC "-//W3C//DTD SVG 20010904//EN"
 "http://www.w3.org/TR/2001/REC-SVG-20010904/DTD/svg10.dtd">
<svg version="1.0" xmlns="http://www.w3.org/2000/svg"
 width="400.000000pt" height="517.000000pt" viewBox="0 0 400.000000 517.000000"
 preserveAspectRatio="xMidYMid meet">

<g transform="translate(0.000000,517.000000) scale(0.100000,-0.100000)"
fill="#000000" stroke="none">
<path d="M491 4698 c10 -35 19 -80 19 -100 0 -27 4 -38 15 -38 10 0 15 10 15
33 0 17 9 61 20 97 24 78 23 70 6 70 -9 0 -17 -15 -21 -40 -9 -56 -20 -57 -35
-5 -7 25 -18 45 -25 45 -10 0 -9 -15 6 -62z"/>
<path d="M612 4748 c-7 -7 -12 -42 -12 -88 0 -83 9 -100 51 -100 39 0 59 33
59 97 0 78 -13 103 -53 103 -18 0 -38 -5 -45 -12z m63 -88 c0 -65 -2 -75 -19
-78 -26 -5 -36 15 -36 75 0 67 7 85 34 81 19 -3 21 -9 21 -78z"/>
<path d="M738 4673 c2 -49 8 -94 14 -100 15 -18 63 -16 82 3 22 22 23 184 1
184 -11 0 -15 -19 -17 -87 -3 -77 -5 -88 -22 -91 -28 -6 -36 15 -36 101 0 55
-4 77 -12 77 -10 0 -12 -22 -10 -87z"/>
<path d="M880 4660 c0 -82 3 -100 15 -100 11 0 15 12 15 50 0 28 4 50 9 50 5
0 17 -22 26 -50 9 -27 22 -50 29 -50 11 0 10 10 -2 46 -12 36 -13 51 -4 65 15
24 15 62 0 77 -7 7 -29 12 -50 12 l-38 0 0 -100z m70 50 c0 -23 -15 -40 -36
-40 -2 0 -4 18 -4 39 0 34 3 38 20 34 14 -4 20 -14 20 -33z"/>
<path d="M1060 4734 c-15 -39 -12 -127 6 -152 30 -43 94 -21 94 32 0 25 -28
19 -32 -6 -2 -15 -10 -23 -23 -23 -18 0 -20 7 -20 75 0 70 1 75 23 78 17 3 22
-2 22 -17 0 -12 6 -21 15 -21 18 0 19 14 5 41 -8 13 -21 19 -46 19 -28 0 -36
-5 -44 -26z"/>
<path d="M1190 4741 c-5 -11 -10 -47 -10 -81 0 -80 11 -100 55 -100 44 0 55
20 55 100 0 80 -11 100 -55 100 -24 0 -38 -6 -45 -19z m68 -78 c-3 -70 -5 -78
-23 -78 -18 0 -20 8 -23 78 -3 77 -3 77 23 77 26 0 26 0 23 -77z"/>
<path d="M1320 4660 c0 -81 3 -100 15 -100 12 0 13 13 10 72 -6 85 6 82 20 -4
14 -86 30 -84 47 4 l13 73 3 -72 c2 -56 6 -73 17 -73 12 0 15 19 15 101 0 98
0 100 -22 97 -20 -3 -24 -12 -34 -71 -6 -37 -13 -69 -16 -72 -3 -3 -11 28 -17
70 -11 63 -15 75 -32 75 -17 0 -19 -8 -19 -100z"/>
<path d="M1490 4660 c0 -102 16 -140 22 -52 3 43 5 47 31 50 37 4 55 41 39 77
-10 21 -19 25 -52 25 l-40 0 0 -100z m70 46 c0 -24 -24 -41 -41 -30 -10 6 -12
57 -3 67 13 12 44 -14 44 -37z"/>
<path d="M1635 4748 c-7 -26 -35 -161 -35 -174 0 -24 19 -15 26 11 4 16 13 25
25 25 12 0 21 -9 25 -25 3 -14 12 -25 19 -25 9 0 7 24 -8 100 -14 66 -26 100
-34 100 -8 0 -15 -6 -18 -12z m28 -80 c4 -29 2 -38 -9 -38 -14 0 -21 60 -7 73
9 9 9 8 16 -35z"/>
<path d="M1730 4661 c0 -74 3 -101 13 -101 8 0 11 17 9 60 -2 33 0 60 5 60 4
0 17 -26 29 -57 32 -90 44 -80 44 36 0 82 -3 101 -15 101 -10 0 -15 -15 -17
-57 l-3 -58 -21 54 c-33 87 -44 77 -44 -38z"/>
<path d="M1856 4733 c4 -16 13 -45 21 -67 7 -21 13 -54 13 -72 0 -24 5 -34 15
-34 11 0 15 11 15 39 0 22 9 67 19 100 14 46 16 61 6 61 -7 0 -18 -20 -25 -45
-15 -52 -26 -51 -35 5 -4 25 -12 40 -21 40 -11 0 -13 -7 -8 -27z"/>
<path d="M480 4450 c0 -7 517 -10 1530 -10 1013 0 1530 3 1530 10 0 7 -517 10
-1530 10 -1013 0 -1530 -3 -1530 -10z"/>
</g>
</svg>
