<?xml version="1.0" standalone="no"?>
<!DOCTYPE svg PUBLIC "-//W3C//DTD SVG 20010904//EN"
 "http://www.w3.org/TR/2001/REC-SVG-20010904/DTD/svg10.dtd">
<svg version="1.0" xmlns="http://www.w3.org/2000/svg"
 width="400.000000pt" height="517.000000pt" viewBox="0 0 400.000000 517.000000"
 preserveAspectRatio="xMidYMid meet">

<g transform="translate(0.000000,517.000000) scale(0.100000,-0.100000)"
fill="#000000" stroke="none">
<path d="M2440 4770 c0 -20 7 -20 540 -20 533 0 540 0 540 20 0 20 -7 20 -540
20 -533 0 -540 0 -540 -20z"/>
<path d="M1042 4295 c194 -195 357 -355 363 -355 6 0 28 17 48 38 l37 37 -318
318 -317 317 -82 0 -83 0 352 -355z"/>
<path d="M2725 3420 l-790 -790 792 0 793 0 2 713 c2 391 1 747 -2 790 l-5 77
-790 -790z m465 315 c-179 -179 -329 -325 -334 -325 -5 0 139 148 320 328 181
180 331 327 334 325 2 -2 -142 -150 -320 -328z m-425 -425 c-49 -49 -91 -88
-93 -85 -6 6 161 175 173 175 5 0 -31 -40 -80 -90z m-143 -141 c-23 -22 -42
-38 -42 -34 0 11 73 85 79 79 3 -3 -14 -23 -37 -45z m-137 -139 c-49 -49 -91
-87 -94 -85 -2 3 36 45 85 94 48 50 90 88 93 85 3 -2 -35 -45 -84 -94z m-135
-135 c-7 -8 -17 -15 -22 -15 -6 0 -5 7 2 15 7 8 17 15 22 15 6 0 5 -7 -2 -15z
m-147 -140 c-64 -63 -120 -115 -123 -115 -4 0 45 52 109 115 64 63 119 115
124 115 4 0 -46 -52 -110 -115z"/>
<path d="M490 3659 l0 -356 153 154 c83 85 167 162 184 171 l33 17 -185 185
-185 185 0 -356z m310 -14 c0 -6 -67 -78 -150 -160 l-150 -150 0 309 0 308
150 -148 c83 -82 150 -153 150 -159z"/>
<path d="M992 3478 c27 -52 98 -129 417 -448 211 -212 384 -388 383 -392 -1
-5 17 -8 40 -8 l43 0 -455 455 c-250 250 -456 455 -458 455 -2 0 12 -28 30
-62z"/>
<path d="M490 2325 c0 -78 3 -95 15 -95 10 0 15 11 15 35 0 31 3 35 25 35 32
0 58 39 49 74 -8 31 -31 46 -73 46 l-31 0 0 -95z m74 49 c8 -20 -11 -54 -29
-54 -10 0 -15 11 -15 33 0 19 3 36 6 40 9 9 32 -3 38 -19z"/>
<path d="M820 2405 c0 -10 7 -15 18 -13 21 4 19 22 -2 26 -10 2 -16 -3 -16
-13z"/>
<path d="M1230 2325 c0 -78 3 -95 15 -95 12 0 15 14 16 63 l0 62 32 -62 c45
-90 57 -84 57 32 0 81 -2 95 -16 95 -14 0 -16 -9 -11 -67 l5 -66 -36 66 c-51
94 -62 89 -62 -28z"/>
<path d="M1097 2368 c-2 -13 -2 -48 2 -78 6 -51 8 -55 34 -58 15 -2 27 1 27 7
0 6 -7 11 -15 11 -11 0 -15 12 -15 45 0 36 3 45 18 45 16 1 16 1 0 14 -10 7
-18 18 -18 25 0 21 -28 11 -33 -11z"/>
<path d="M620 2293 c0 -49 3 -63 15 -63 11 0 15 12 15 50 0 38 4 50 15 50 8 0
15 6 15 13 0 8 -12 14 -30 14 l-30 0 0 -64z"/>
<path d="M710 2345 c-15 -18 -18 -69 -7 -98 4 -11 17 -17 41 -17 30 0 36 4 46
35 9 27 8 40 -2 62 -16 33 -58 42 -78 18z m60 -45 c0 -28 -11 -50 -25 -50 -24
0 -34 57 -13 78 15 15 38 -2 38 -28z"/>
<path d="M820 2282 c0 -43 -5 -83 -11 -89 -16 -16 8 -28 26 -13 22 18 21 180
0 180 -12 0 -15 -15 -15 -78z"/>
<path d="M891 2341 c-15 -27 -14 -84 1 -99 14 -14 78 -16 78 -3 0 5 -12 11
-27 13 -17 2 -29 10 -31 21 -3 13 3 17 28 17 29 0 31 2 28 33 -3 28 -7 32 -35
35 -23 2 -34 -2 -42 -17z m57 -19 c2 -7 -6 -12 -17 -12 -21 0 -27 11 -14 24 9
9 26 2 31 -12z"/>
<path d="M1012 2348 c-13 -13 -16 -75 -6 -102 4 -10 18 -16 35 -16 35 0 38 11
7 25 -13 6 -24 20 -26 33 -4 28 16 55 35 48 7 -3 13 1 13 9 0 18 -41 20 -58 3z"/>
<path d="M1385 2350 c-6 -10 -4 -11 30 -14 27 -2 25 -30 -3 -34 -25 -4 -45
-33 -36 -56 4 -11 19 -15 47 -14 l42 1 2 45 c3 59 -10 82 -47 82 -16 0 -32 -4
-35 -10z m55 -74 c0 -20 -19 -31 -32 -18 -6 6 -7 15 -4 21 10 16 36 13 36 -3z"/>
<path d="M1490 2293 c0 -48 3 -63 14 -63 11 0 16 15 18 53 2 38 7 52 18 52 11
0 16 -14 18 -52 4 -64 22 -71 22 -9 0 41 19 74 33 59 4 -3 7 -28 7 -55 0 -36
4 -48 15 -48 11 0 15 12 15 49 0 27 -3 56 -6 65 -7 18 -39 22 -49 6 -4 -7 -11
-8 -18 -1 -7 5 -29 9 -49 8 l-38 -1 0 -63z"/>
<path d="M1686 2338 c-35 -49 -13 -108 39 -108 41 0 47 17 8 22 -17 2 -29 10
-31 21 -3 14 4 17 32 17 26 0 36 4 36 16 0 52 -56 73 -84 32z m52 -16 c2 -7
-6 -12 -17 -12 -21 0 -27 11 -14 24 9 9 26 2 31 -12z"/>
<path d="M508 1903 c18 -2 45 -2 60 0 15 2 0 4 -33 4 -33 0 -45 -2 -27 -4z"/>
</g>
</svg>
