<?xml version="1.0" standalone="no"?>
<!DOCTYPE svg PUBLIC "-//W3C//DTD SVG 20010904//EN"
 "http://www.w3.org/TR/2001/REC-SVG-20010904/DTD/svg10.dtd">
<svg version="1.0" xmlns="http://www.w3.org/2000/svg"
 width="400.000000pt" height="518.000000pt" viewBox="0 0 400.000000 518.000000"
 preserveAspectRatio="xMidYMid meet">

<g transform="translate(0.000000,518.000000) scale(0.100000,-0.100000)"
fill="#000000" stroke="none">
<path d="M673 4472 c-56 -8 -57 -68 0 -95 52 -26 50 -51 -4 -44 -34 4 -40 3
-37 -11 5 -27 79 -28 102 -3 27 30 14 67 -29 81 -36 12 -47 36 -21 46 8 3 24
1 35 -6 18 -9 21 -8 21 8 0 21 -27 30 -67 24z"/>
<path d="M260 4445 c0 -93 113 -204 208 -205 31 0 32 1 32 45 0 28 -4 45 -12
45 -6 0 -30 9 -53 20 -42 21 -75 63 -75 99 0 19 -6 21 -50 21 -47 0 -50 -2
-50 -25z"/>
<path d="M796 4448 c-19 -27 -21 -98 -3 -122 7 -9 31 -20 54 -23 35 -5 45 -2
67 20 33 33 36 97 6 127 -29 29 -103 28 -124 -2z m85 -8 c22 -12 27 -78 7 -98
-15 -15 -55 -16 -63 -1 -15 24 -9 81 10 95 23 17 21 17 46 4z"/>
<path d="M980 4385 c0 -69 3 -85 15 -85 10 0 15 11 15 35 0 33 2 35 35 35 24
0 35 5 35 15 0 10 -11 15 -35 15 -28 0 -35 4 -35 20 0 17 7 20 40 20 29 0 40
4 40 15 0 12 -13 15 -55 15 l-55 0 0 -85z"/>
<path d="M1112 4458 c3 -7 14 -14 26 -16 20 -3 22 -9 22 -73 0 -62 2 -69 20
-69 18 0 20 7 20 70 0 68 1 70 25 70 16 0 25 6 25 15 0 12 -15 15 -71 15 -52
0 -70 -3 -67 -12z"/>
<path d="M1272 4458 c3 -7 13 -46 23 -86 16 -62 22 -72 39 -70 15 2 25 18 37
58 17 57 18 57 42 -15 21 -60 47 -54 68 16 31 107 31 109 10 109 -16 0 -22
-11 -32 -55 -7 -30 -15 -55 -19 -55 -4 0 -13 25 -20 55 -18 74 -43 76 -60 5
-7 -28 -15 -52 -19 -55 -5 -2 -13 20 -20 50 -10 45 -16 55 -33 55 -12 0 -18
-5 -16 -12z"/>
<path d="M1547 4403 c-14 -38 -28 -76 -32 -85 -10 -26 21 -23 35 2 7 14 21 20
44 20 25 0 35 -5 39 -20 5 -18 37 -29 37 -13 0 5 -12 43 -26 85 -22 67 -29 78
-49 78 -19 0 -27 -11 -48 -67z m57 5 c9 -35 8 -38 -14 -38 -11 0 -20 3 -20 8
0 19 13 52 20 52 4 0 10 -10 14 -22z"/>
<path d="M1710 4385 c0 -69 3 -85 15 -85 10 0 15 10 15 30 0 22 5 30 18 30 10
0 26 -13 35 -30 11 -18 26 -30 38 -30 12 0 19 3 17 8 -2 4 -10 19 -17 34 -12
23 -11 29 3 43 42 42 7 85 -70 85 l-54 0 0 -85z m95 30 c0 -15 -8 -21 -32 -23
-30 -3 -33 -1 -33 23 0 24 3 26 33 23 24 -2 32 -8 32 -23z"/>
<path d="M1890 4385 l0 -85 60 0 c47 0 60 3 60 15 0 11 -11 15 -40 15 -33 0
-40 3 -40 20 0 16 7 20 30 20 20 0 30 5 30 15 0 10 -10 15 -30 15 -23 0 -30 5
-30 19 0 16 8 20 37 23 20 2 38 9 41 16 3 9 -13 12 -57 12 l-61 0 0 -85z"/>
<path d="M630 4065 l0 -85 39 0 c45 0 92 15 103 33 4 7 8 31 8 55 0 61 -25 82
-95 82 l-55 0 0 -85z m112 29 c16 -35 -7 -78 -45 -82 -27 -3 -27 -2 -27 52 0
56 0 56 30 56 23 0 33 -6 42 -26z"/>
<path d="M820 4065 l0 -85 55 0 c42 0 55 3 55 15 0 10 -11 15 -35 15 -28 0
-35 4 -35 20 0 16 7 20 30 20 20 0 30 5 30 15 0 10 -10 15 -30 15 -23 0 -30 4
-30 20 0 16 7 20 35 20 24 0 35 5 35 15 0 12 -13 15 -55 15 l-55 0 0 -85z"/>
<path d="M990 4069 c17 -44 30 -82 30 -85 0 -2 10 -4 23 -4 18 0 26 8 34 33 6
17 20 56 32 85 20 50 20 52 2 52 -14 0 -24 -13 -36 -52 -10 -29 -21 -57 -26
-62 -4 -5 -16 18 -25 52 -15 53 -21 62 -40 62 l-23 0 29 -81z"/>
<path d="M1160 4065 l0 -85 55 0 c42 0 55 3 55 15 0 10 -11 15 -35 15 -28 0
-35 4 -35 20 0 16 7 20 30 20 20 0 30 5 30 15 0 10 -10 15 -30 15 -23 0 -30 4
-30 20 0 16 7 20 35 20 24 0 35 5 35 15 0 12 -13 15 -55 15 l-55 0 0 -85z"/>
<path d="M1310 4065 l0 -85 60 0 c47 0 60 3 60 15 0 11 -11 15 -40 15 l-40 0
0 70 c0 63 -2 70 -20 70 -18 0 -20 -7 -20 -85z"/>
<path d="M1470 4123 c-44 -56 -6 -143 62 -143 42 0 64 15 77 51 23 66 -10 119
-75 119 -35 0 -47 -5 -64 -27z m90 -13 c22 -22 26 -51 10 -81 -12 -21 -50 -25
-68 -7 -17 17 -15 74 4 92 20 21 30 20 54 -4z"/>
<path d="M1650 4065 c0 -78 2 -85 20 -85 16 0 20 7 20 30 0 27 3 30 33 30 38
0 67 25 67 58 0 36 -27 52 -86 52 l-54 0 0 -85z m95 30 c0 -14 -8 -21 -27 -23
-24 -3 -28 0 -28 23 0 23 4 26 28 23 19 -2 27 -9 27 -23z"/>
<path d="M1830 4065 c0 -69 3 -85 15 -85 12 0 15 13 15 55 0 30 3 55 6 55 3 0
15 -12 27 -26 l20 -27 28 34 28 34 1 -62 c0 -49 3 -63 15 -63 12 0 15 16 15
85 0 78 -2 85 -19 85 -11 0 -28 -13 -38 -30 -9 -16 -21 -30 -25 -30 -4 0 -17
14 -30 30 -12 17 -30 30 -40 30 -16 0 -18 -10 -18 -85z"/>
<path d="M2050 4065 l0 -85 55 0 c42 0 55 3 55 15 0 11 -11 15 -40 15 -33 0
-40 3 -40 20 0 16 7 20 35 20 24 0 35 5 35 15 0 10 -11 15 -35 15 -28 0 -35 4
-35 20 0 17 7 20 40 20 29 0 40 4 40 15 0 12 -13 15 -55 15 l-55 0 0 -85z"/>
<path d="M2200 4065 c0 -69 3 -85 15 -85 11 0 15 12 15 50 0 28 4 50 8 50 4 0
25 -22 46 -50 56 -73 66 -68 66 35 0 78 -2 85 -19 85 -17 0 -20 -8 -23 -47
l-3 -48 -34 48 c-20 26 -42 47 -53 47 -16 0 -18 -9 -18 -85z"/>
<path d="M2380 4135 c0 -9 9 -15 25 -15 24 0 25 -2 25 -70 0 -56 3 -70 15 -70
12 0 15 14 15 70 0 68 1 70 25 70 16 0 25 6 25 15 0 12 -14 15 -65 15 -51 0
-65 -3 -65 -15z"/>
<path d="M1583 3842 c-56 -8 -57 -68 0 -95 52 -26 50 -51 -4 -44 -34 4 -40 3
-37 -11 5 -27 79 -28 102 -3 27 30 14 67 -29 81 -36 12 -47 36 -21 46 8 3 24
1 35 -6 18 -9 21 -8 21 8 0 21 -27 30 -67 24z"/>
<path d="M630 3755 c0 -78 2 -85 20 -85 16 0 20 7 20 30 0 28 3 30 34 30 42 0
66 22 66 60 0 37 -23 50 -89 50 l-51 0 0 -85z m98 33 c-2 -17 -11 -24 -30 -26
-24 -3 -28 0 -28 22 0 22 4 26 31 26 26 0 30 -3 27 -22z"/>
<path d="M810 3755 c0 -69 3 -85 15 -85 10 0 15 10 15 30 0 22 5 30 18 30 10
0 26 -13 35 -30 11 -18 26 -30 38 -30 12 0 19 3 17 8 -2 4 -10 19 -17 34 -12
23 -11 29 3 43 42 42 7 85 -70 85 l-54 0 0 -85z m95 30 c0 -15 -8 -21 -32 -23
-30 -3 -33 -1 -33 23 0 24 3 26 33 23 24 -2 32 -8 32 -23z"/>
<path d="M996 3818 c-19 -27 -21 -98 -3 -122 7 -9 31 -20 54 -23 35 -5 45 -2
67 20 33 33 36 97 6 127 -29 29 -103 28 -124 -2z m85 -8 c22 -12 27 -78 7 -98
-15 -15 -55 -16 -63 -1 -15 24 -9 81 10 95 23 17 21 17 46 4z"/>
<path d="M1180 3755 c0 -69 3 -85 15 -85 10 0 15 10 15 30 0 27 3 30 31 30 48
0 69 16 69 53 0 46 -16 57 -77 57 l-53 0 0 -85z m90 30 c0 -21 -5 -25 -30 -25
-25 0 -30 4 -30 25 0 21 5 25 30 25 25 0 30 -4 30 -25z"/>
<path d="M1368 3823 c-35 -40 -27 -122 12 -143 29 -15 76 -12 100 8 32 26 38
90 10 125 -17 22 -29 27 -64 27 -28 0 -48 -6 -58 -17z m86 -19 c19 -18 21 -75
4 -92 -18 -18 -56 -14 -68 7 -16 30 -12 59 10 81 24 24 34 25 54 4z"/>
<path d="M1717 3773 c-14 -38 -28 -76 -32 -85 -10 -26 21 -23 35 2 7 14 21 20
44 20 25 0 35 -5 39 -20 5 -18 37 -29 37 -13 0 5 -12 43 -26 85 -22 67 -29 78
-49 78 -19 0 -27 -11 -48 -67z m57 5 c9 -35 8 -38 -14 -38 -11 0 -20 3 -20 8
0 19 13 52 20 52 4 0 10 -10 14 -22z"/>
<path d="M1870 3755 l0 -85 60 0 c47 0 60 3 60 15 0 11 -11 15 -40 15 l-40 0
0 70 c0 63 -2 70 -20 70 -18 0 -20 -7 -20 -85z"/>
<path d="M674 1865 c-3 -8 -4 -20 -2 -27 3 -7 7 -1 10 15 6 29 1 36 -8 12z"/>
<path d="M727 1873 c-14 -13 -7 -43 11 -43 14 0 15 2 2 10 -13 9 -13 10 0 10
12 0 13 2 1 9 -11 7 -11 9 0 14 8 3 9 6 3 6 -6 1 -14 -2 -17 -6z"/>
<path d="M816 1865 c-9 -23 -8 -25 9 -25 17 0 19 9 6 28 -7 11 -10 10 -15 -3z"/>
<path d="M866 1873 c7 -4 14 -17 17 -28 5 -16 5 -15 4 4 -1 14 -9 26 -17 28
-10 3 -11 2 -4 -4z"/>
<path d="M951 1857 c-1 -22 3 -28 16 -25 10 2 18 10 19 18 0 9 -1 10 -3 3 -7
-21 -21 -15 -26 10 -4 18 -5 17 -6 -6z"/>
<path d="M1027 1873 c-4 -3 -7 -16 -6 -27 0 -12 3 -15 6 -9 2 7 4 15 3 19 -1
4 4 11 12 15 7 5 8 9 2 9 -6 0 -14 -3 -17 -7z"/>
<path d="M1061 1858 c-1 -22 18 -33 32 -19 9 9 8 11 -5 6 -11 -4 -18 0 -21 12
-4 15 -5 16 -6 1z"/>
<path d="M1137 1855 c-4 -8 -3 -16 1 -19 4 -3 9 4 9 15 2 23 -3 25 -10 4z"/>
<path d="M674 1415 c-3 -8 -4 -20 -2 -27 3 -7 7 -1 10 15 6 29 1 36 -8 12z"/>
<path d="M727 1423 c-14 -13 -7 -43 11 -43 14 0 15 2 2 10 -13 9 -13 10 0 10
12 0 13 2 1 9 -11 7 -11 9 0 14 8 3 9 6 3 6 -6 1 -14 -2 -17 -6z"/>
<path d="M816 1415 c-9 -23 -8 -25 9 -25 17 0 19 9 6 28 -7 11 -10 10 -15 -3z"/>
<path d="M866 1423 c7 -4 14 -17 17 -28 5 -16 5 -15 4 4 -1 14 -9 26 -17 28
-10 3 -11 2 -4 -4z"/>
<path d="M951 1407 c-1 -22 3 -28 16 -25 10 2 18 10 19 18 0 9 -1 10 -3 3 -7
-21 -21 -15 -26 10 -4 18 -5 17 -6 -6z"/>
<path d="M1027 1423 c-13 -12 -7 -43 7 -43 22 0 30 19 12 26 -9 3 -13 10 -10
15 6 11 0 12 -9 2z"/>
<path d="M1077 1399 c4 -13 8 -18 11 -10 2 7 -1 18 -6 23 -8 8 -9 4 -5 -13z"/>
</g>
</svg>
